<svg width="57" height="60" viewBox="0 0 57 60" fill="none" xmlns="http://www.w3.org/2000/svg">
    <g clip-path="url(#clip0_1291_14620)">
        <path d="M16.8333 25.6668V44.3335C16.8333 44.9523 16.5875 45.5458 16.1499 45.9834C15.7123 46.421 15.1188 46.6668 14.5 46.6668H9.83333C9.21449 46.6668 8.621 46.421 8.18342 45.9834C7.74583 45.5458 7.5 44.9523 7.5 44.3335V28.0002C7.5 27.3813 7.74583 26.7878 8.18342 26.3502C8.621 25.9127 9.21449 25.6668 9.83333 25.6668H16.8333ZM16.8333 25.6668C19.3087 25.6668 21.6827 24.6835 23.433 22.9332C25.1833 21.1828 26.1667 18.8088 26.1667 16.3335V14.0002C26.1667 12.7625 26.6583 11.5755 27.5335 10.7003C28.4087 9.82516 29.5957 9.3335 30.8333 9.3335C32.071 9.3335 33.258 9.82516 34.1332 10.7003C35.0083 11.5755 35.5 12.7625 35.5 14.0002V25.6668H42.5C43.7377 25.6668 44.9247 26.1585 45.7998 27.0337C46.675 27.9088 47.1667 29.0958 47.1667 30.3335L44.8333 42.0002C44.4978 43.4316 43.8612 44.6607 43.0195 45.5024C42.1778 46.3441 41.1766 46.7527 40.1667 46.6668H23.8333C21.9768 46.6668 20.1963 45.9293 18.8836 44.6166C17.5708 43.3038 16.8333 41.5233 16.8333 39.6668" stroke="#2D81E0" stroke-width="3" stroke-linecap="round" stroke-linejoin="round"/>
    </g>
    <defs>
        <clipPath id="clip0_1291_14620">
            <rect width="56" height="60" fill="white" transform="translate(0.5)"/>
        </clipPath>
    </defs>
</svg>
